<svg width="157.1px" height="336.8px" xmlns="http://www.w3.org/2000/svg" viewBox="171.45 -93.4 157.1 336.8" style="background: rgba(0, 0, 0, 0);" preserveAspectRatio="xMidYMid"><defs><filter id="editing-vr"><feFlood flood-color="#008283" flood-opacity="0.7" result="c1"></feFlood><feFlood flood-color="#f9f871" flood-opacity="0.7" result="c3"></feFlood><feComposite operator="in" in="c1" in2="SourceAlpha" result="text-c1"></feComposite><feComposite operator="in" in="c3" in2="SourceAlpha" result="text-c3"></feComposite><feOffset in="text-c1" dx="7" dy="-4" result="text1"></feOffset><feOffset in="text-c3" dx="-7" dy="4" result="text3"></feOffset><feBlend in="SourceGraphic" in2="text1" mode="multiply" result="text4"></feBlend><feBlend in="text4" in2="text3" mode="multiply"></feBlend></filter></defs><g filter="url(#editing-vr)"><g transform="translate(203.70000767707825, 143)"><path d="M87-30.80L87-30.80L87-30.80Q90.80-26 90.80-16.70L90.80-16.70L90.80-16.70Q90.80-7.40 83.70-1.70L83.70-1.70L83.70-1.70Q76.60 4 64.20 4L64.20 4L64.20 4Q57 4 45.80 2.40L45.80 2.40L45.80 2.40Q23.80-1 17.50-1L17.50-1L17.50-1Q11.20-1 8.60-0.70L8.60-0.70L8.60-0.70Q6-0.40 1.80 0L1.80 0L26-132L69.80-132L49.80-22L49.80-22Q52.40-21.60 54.80-21.60L54.80-21.60L59.80-21.60L59.80-21.60Q76.60-21.60 87-30.80Z" fill="#000000"></path></g></g><style>text {
  font-size: 64px;
  font-family: Arial Black;
  dominant-baseline: central;
  text-anchor: middle;
}</style></svg>